<svg width="133" height="44" viewBox="0 0 133 44" fill="none" xmlns="http://www.w3.org/2000/svg">
<path d="M42.0668 22.0336L10.5167 40.2491L10.5167 3.81813L42.0668 22.0336Z" fill="#111111"/>
<path d="M21 22L55.5 2.94744L55.5 41.0526L21 22Z" fill="#888993"/>
<path d="M24 22.0334L55.5501 3.81796L55.5501 40.2489L24 22.0334Z" fill="#111111"/>
<path d="M82.656 29.192C78.528 29.192 76.056 26.048 76.056 20.936C76.056 16.208 78.816 12.68 83.808 12.68C87.192 12.68 89.688 14.312 90.792 17.216L88.44 18.896C87.96 16.832 86.424 15.248 83.832 15.248C80.472 15.248 78.936 17.6 78.936 20.936C78.936 24.344 80.496 26.648 83.664 26.648C86.376 26.648 87.576 25.184 88.152 22.952H83.52V20.672H90.864V29H89.136L88.392 22.952C88.272 26.576 86.232 29.192 82.656 29.192ZM96.5929 29H93.8809V12.92H96.5929V29ZM102.898 29H100.186V12.92H103.522L106.978 19.976L108.562 24.08L110.17 19.976L113.626 12.92H116.938V29H114.226V21.44L114.562 16.136L112.714 20.744L109.93 26.288H107.194L104.41 20.744L102.514 16.136L102.898 21.44V29ZM131.905 29H120.529V12.92H131.905V15.32H123.241V19.592H130.417V21.992H123.241V26.6H131.905V29Z" fill="black"/>
</svg>
