<svg width="69" height="23" viewBox="0 0 69 23" fill="none" xmlns="http://www.w3.org/2000/svg">
<path d="M21.689 11.3602L5.42221 20.7518L5.42221 1.96857L21.689 11.3602Z" fill="white"/>
<path d="M10.8274 11.3429L28.6151 1.51967L28.6151 21.1661L10.8274 11.3429Z" fill="#888993"/>
<path d="M12.374 11.3601L28.6408 1.96848L28.6408 20.7517L12.374 11.3601Z" fill="white"/>
<path d="M42.6161 14.9418C40.4878 14.9418 39.2133 13.3208 39.2133 10.6852C39.2133 8.24748 40.6363 6.4285 43.2101 6.4285C44.9548 6.4285 46.2417 7.26993 46.8109 8.76719L45.5983 9.63337C45.3508 8.5692 44.5589 7.75252 43.2225 7.75252C41.4901 7.75252 40.6982 8.96517 40.6982 10.6852C40.6982 12.4423 41.5025 13.6302 43.1358 13.6302C44.5341 13.6302 45.1528 12.8754 45.4498 11.7246H43.0616V10.549H46.8481V14.8428H45.9571L45.5735 11.7246C45.5117 13.5931 44.4599 14.9418 42.6161 14.9418ZM49.8018 14.8428H48.4035V6.55224H49.8018V14.8428ZM53.0524 14.8428H51.6541V6.55224H53.3741L55.156 10.1902L55.9726 12.3062L56.8017 10.1902L58.5836 6.55224H60.2912V14.8428H58.8929V10.945L59.0661 8.21036L58.1133 10.5862L56.678 13.4446H55.2673L53.8319 10.5862L52.8544 8.21036L53.0524 10.945V14.8428ZM68.0083 14.8428H62.143V6.55224H68.0083V7.78964H63.5413V9.99222H67.2411V11.2296H63.5413V13.6054H68.0083V14.8428Z" fill="white"/>
</svg>
